<?xml version="1.0" standalone="no"?>
<!DOCTYPE svg PUBLIC "-//W3C//DTD SVG 20010904//EN"
 "http://www.w3.org/TR/2001/REC-SVG-20010904/DTD/svg10.dtd">
<svg version="1.0" xmlns="http://www.w3.org/2000/svg"
 width="84.000000pt" height="96.000000pt" viewBox="0 0 84.000000 96.000000"
 preserveAspectRatio="xMidYMid meet">

<g transform="translate(0.000000,96.000000) scale(0.100000,-0.100000)"
fill="#000000" stroke="none">
<path d="M134 852 c-51 -7 -76 -84 -40 -120 14 -14 45 -18 200 -22 182 -5 183
-5 232 -35 69 -43 105 -101 111 -178 6 -70 -7 -112 -53 -166 -36 -43 -116 -81
-171 -81 -81 0 -122 -37 -107 -96 11 -43 59 -59 143 -46 136 20 238 88 291
195 109 223 1 474 -230 535 -41 11 -325 21 -376 14z"/>
<path d="M114 618 c-12 -5 -27 -21 -33 -34 -15 -34 -15 -404 0 -438 23 -51
103 -55 128 -7 7 12 11 101 11 231 0 211 0 211 -25 235 -26 27 -47 30 -81 13z"/>
</g>
</svg>
